<svg width="800" height="1000" viewBox="0 0 1744 1989" fill="none" xmlns="http://www.w3.org/2000/svg">
    <path d="M1219.5 1955.5L1286.5 1553M1286.5 1553L1219.5 1301M1286.5 1553L845 1852.5L1219.5 1301M1219.5 1301L556 1619.5M556 1619.5L837.5 1843.5L243.5 1499M556 1619.5L243.5 1499M243.5 1499L22.5 1920.5L584 1955.5L243.5 1499ZM243.5 1499V1955.5" stroke="#455797" stroke-width="3"/>
    <path d="M1734.5 360L1383.5 598.5L1678 466L1734.5 412.5" stroke="#455797" stroke-width="3"/>
    <path d="M1740 537.5L1671.5 460.5L1652.5 1096L1734.5 914" stroke="#455797" stroke-width="3"/>
    <path d="M1736.5 640.5L1382.5 600.5M1382.5 600.5L1652.5 1094M1382.5 600.5L982.5 1094M1652.5 1094H982.5M1652.5 1094L1483 1347M1652.5 1094L1736.5 1137M1652.5 1094L1667.5 1583M982.5 1094L1483 1347M982.5 1094L1221 1304.5M1379 595.5L1483 1347M1483 1347L1286.5 1554.5M1483 1347L1221 1304.5M1667.5 1583L1663 1582.66M1667.5 1583L1732 1512M1667.5 1583L1736.5 1626.5M1667.5 1583L1736.5 1673M1286.5 1554.5L1663 1582.66M1286.5 1554.5L1736.5 1780M1732 1304.5L1487.5 1347L1663 1582.66M1663 1582.66L1221 1304.5M1663 1582.66L1480 1985.5" stroke="#455797" stroke-width="3"/>
    <circle cx="1199.5" cy="374" r="21.5" fill="#455797"/>
    <circle cx="1382.5" cy="601" r="21.5" fill="#455797"/>
    <circle cx="1673.5" cy="469" r="21.5" fill="#455797"/>
    <circle cx="1653.5" cy="1092" r="21.5" fill="#455797"/>
    <circle cx="1485.5" cy="1346" r="21.5" fill="#455797"/>
    <circle cx="1218.5" cy="1303" r="21.5" fill="#455797"/>
    <circle cx="985.5" cy="1092" r="21.5" fill="#455797"/>
    <circle cx="1286.5" cy="1553" r="21.5" fill="#455797"/>
    <circle cx="1665.5" cy="1582" r="21.5" fill="#455797"/>
    <circle cx="844.5" cy="1849" r="21.5" fill="#455797"/>
    <circle cx="554.5" cy="1620" r="21.5" fill="#455797"/>
    <circle cx="246.5" cy="1499" r="21.5" fill="#455797"/>
    <circle cx="21.5" cy="1922" r="21.5" fill="#455797"/>
    <circle cx="584.5" cy="1955" r="21.5" fill="#455797"/>
    <path d="M1485 1L1196.5 375L1743 258.5" stroke="#455797" stroke-width="3"/>
    <path d="M1196.5 375L1381 601.5L1580 4.5" stroke="#455797" stroke-width="3"/>
    <path d="M1286.5 1554.5L1459.5 1987.5" stroke="#455797" stroke-width="3"/>
    <path d="M556 1621L584 1957.5L842.5 1852.5L1252.5 1957.5" stroke="#455797" stroke-width="3"/>
    <path d="M805 1955.5L847.5 1841L938 1955.5" stroke="#455797" stroke-width="3"/>
</svg>