<svg width="112" height="40" viewBox="0 0 168 60" fill="none" xmlns="http://www.w3.org/2000/svg">
    <g clip-path="url(#clip0_30_798)" filter="url(#filter0_i_30_798)">
        <path d="M35.3523 45.5827C32.3713 45.5827 29.5766 45.3539 26.9683 44.8962C24.4066 44.4843 22.1941 43.8665 20.331 43.0427V33.6379C22.3804 34.5074 24.6394 35.2168 27.108 35.766C29.6232 36.3152 31.9987 36.5897 34.2344 36.5897C37.0291 36.5897 39.1018 36.3381 40.4525 35.8346C41.8499 35.3312 42.5485 34.2328 42.5485 32.5395C42.5485 31.3954 42.1992 30.48 41.5005 29.7935C40.8484 29.1071 39.7539 28.5121 38.2168 28.0087C36.7263 27.4595 34.6769 26.8188 32.0686 26.0865C28.9944 25.1712 26.5491 24.1644 24.7326 23.066C22.916 21.9218 21.6119 20.5488 20.82 18.9471C20.0282 17.3453 19.6323 15.3773 19.6323 13.0432C19.6323 8.83278 21.1694 5.60631 24.2435 3.36379C27.3176 1.12127 31.859 0 37.8675 0C40.4758 0 43.0143 0.205946 45.4829 0.617839C47.9516 0.983965 49.9544 1.41874 51.4914 1.92217V11.3957C49.4886 10.6177 47.4625 10.0456 45.413 9.67951C43.4102 9.31338 41.454 9.13027 39.5443 9.13027C37.0291 9.13027 34.9797 9.35914 33.396 9.81678C31.859 10.2744 31.0904 11.3271 31.0904 12.9746C31.0904 13.9357 31.3699 14.7137 31.9289 15.3086C32.4878 15.8579 33.4426 16.3613 34.7934 16.8189C36.1906 17.2765 38.0771 17.8258 40.4525 18.4665C44.1321 19.4276 46.9501 20.5946 48.9064 21.9676C50.8626 23.2948 52.2134 24.8508 52.9586 26.6357C53.7039 28.3748 54.0765 30.3427 54.0765 32.5395C54.0765 36.4296 52.5394 39.5874 49.4653 42.013C46.3912 44.3928 41.6869 45.5827 35.3523 45.5827Z"
              fill="#F8F8F8"/>
        <path d="M98.3335 44.8962V0.686493H107.975L127.149 30.48L127.118 0.686493H138.436V44.8962H127.149L109.582 18.5352V44.8962H98.3335Z"
              fill="#F8F8F8"/>
        <path d="M127.149 44.8962V0.686493H146.643C151.207 0.686493 155.05 1.44163 158.17 2.9519C161.291 4.4164 163.666 6.79623 165.297 10.0914C166.927 13.3407 167.742 17.6656 167.742 23.066C167.742 30.6631 165.949 36.2007 162.362 39.6789C158.823 43.1572 153.582 44.8962 146.643 44.8962H127.149ZM138.398 36.3838H145.106C147.527 36.3838 149.554 36.0406 151.184 35.3541C152.86 34.6218 154.118 33.2947 154.957 31.3725C155.841 29.4503 156.284 26.6814 156.284 23.066C156.284 19.4047 155.888 16.5901 155.096 14.6222C154.351 12.6085 153.14 11.2127 151.463 10.4346C149.833 9.6108 147.714 9.19891 145.106 9.19891H138.398V36.3838Z"
              fill="#F8F8F8"/>
        <path d="M58.688 0.732269H91.9913V9.19892H58.688V0.732269Z" fill="#F8F8F8"/>
        <path d="M58.688 36.4296H91.9913V44.8962H58.688V36.4296Z" fill="#F8F8F8"/>
        <path d="M58.688 18.3521H91.9913V27.0476H58.688V18.3521Z" fill="#F8F8F8"/>
        <path d="M0 43.7521V33.9124H5.17111C6.15463 33.9124 6.89481 34.1467 7.39164 34.6152C7.89861 35.0838 8.15209 35.7459 8.15209 36.6015C8.15209 37.121 8.0507 37.559 7.84792 37.9155C7.65527 38.2619 7.39671 38.5318 7.07224 38.7253C7.51838 38.8883 7.86818 39.1277 8.12168 39.4435C8.37516 39.7592 8.50191 40.2329 8.50191 40.8644C8.50191 41.8015 8.22814 42.5196 7.68061 43.0187C7.13308 43.5077 6.34727 43.7521 5.3232 43.7521H0ZM2.44867 37.9155H4.44107C4.86692 37.9155 5.17617 37.8188 5.36882 37.6252C5.56147 37.4317 5.65779 37.1617 5.65779 36.8155C5.65779 36.4385 5.56147 36.1585 5.36882 35.9751C5.17617 35.7816 4.82636 35.6848 4.31939 35.6848H2.44867V37.9155ZM2.44867 41.995H4.68441C5.13055 41.995 5.46008 41.9033 5.67301 41.72C5.89608 41.5366 6.0076 41.2107 6.0076 40.7421C6.0076 40.3652 5.90114 40.0852 5.68822 39.9018C5.47529 39.7082 5.11027 39.6115 4.59316 39.6115H2.44867V41.995Z"
              fill="#F8F8F8"/>
        <path d="M11.4894 43.7521V40.131L7.97607 33.9124H10.5312L12.7213 37.9919L14.9114 33.9124H17.4665L13.9533 40.131V43.7521H11.4894Z"
              fill="#F8F8F8"/>
        <path d="M86.9012 59.8273V52.5885H84.1875V51.4878H91.0375V52.5885H88.337V59.8273H86.9012Z"
              fill="#F8F8F8"/>
        <path d="M92.1885 59.8273V51.4878H98.1034V52.5885H93.6244V55.1137H97.6159V56.2014H93.6244V58.7396H98.1034V59.8273H92.1885Z"
              fill="#F8F8F8"/>
        <path d="M103.281 59.9568C101.885 59.9568 100.826 59.5813 100.106 58.8302C99.3947 58.0791 99.0391 57.0648 99.0391 55.7871C99.0391 54.8719 99.1884 54.0863 99.487 53.4302C99.7943 52.7655 100.26 52.2561 100.883 51.9022C101.507 51.5396 102.302 51.3583 103.268 51.3583C103.76 51.3583 104.207 51.3971 104.611 51.4748C105.024 51.5439 105.406 51.6388 105.758 51.7597V52.9899C105.406 52.8518 105.029 52.7482 104.625 52.6791C104.229 52.6014 103.812 52.5626 103.373 52.5626C102.319 52.5626 101.573 52.8389 101.134 53.3914C100.703 53.9439 100.488 54.7424 100.488 55.7871C100.488 56.7626 100.725 57.505 101.2 58.0144C101.674 58.5151 102.407 58.7655 103.399 58.7655C103.803 58.7655 104.207 58.7353 104.611 58.6748C105.024 58.6058 105.411 58.5022 105.771 58.364V59.6072C105.419 59.7194 105.037 59.8058 104.625 59.8662C104.221 59.9266 103.773 59.9568 103.281 59.9568Z"
              fill="#F8F8F8"/>
        <path d="M107.163 59.8273V51.4878H108.599V55.1137H112.682V51.4878H114.118V59.8273H112.682V56.2014H108.599V59.8273H107.163Z"
              fill="#F8F8F8"/>
        <path d="M115.782 59.8273V51.4878H117.047L121.473 57.6259V51.4878H122.896V59.8273H121.631L117.218 53.7021V59.8273H115.782Z"
              fill="#F8F8F8"/>
        <path d="M128.324 59.9568C126.98 59.9568 125.974 59.6115 125.307 58.9209C124.639 58.2216 124.306 57.1424 124.306 55.6835C124.306 54.164 124.639 53.0633 125.307 52.3813C125.974 51.6993 126.98 51.3583 128.324 51.3583C129.676 51.3583 130.682 51.6993 131.34 52.3813C132.008 53.0633 132.341 54.164 132.341 55.6835C132.341 57.1424 132.008 58.2216 131.34 58.9209C130.682 59.6115 129.676 59.9568 128.324 59.9568ZM128.324 58.7655C129.211 58.7655 129.86 58.5281 130.273 58.0532C130.695 57.5698 130.906 56.7799 130.906 55.6835C130.906 54.5266 130.695 53.7194 130.273 53.2619C129.86 52.7957 129.211 52.5626 128.324 52.5626C127.445 52.5626 126.795 52.7957 126.374 53.2619C125.961 53.7194 125.755 54.5266 125.755 55.6835C125.755 56.7799 125.961 57.5698 126.374 58.0532C126.795 58.5281 127.445 58.7655 128.324 58.7655Z"
              fill="#F8F8F8"/>
        <path d="M133.741 59.8273V51.4878H135.177V58.7396H139.524V59.8273H133.741Z" fill="#F8F8F8"/>
        <path d="M144.018 59.9568C142.675 59.9568 141.669 59.6115 141.002 58.9209C140.334 58.2216 140 57.1424 140 55.6835C140 54.164 140.334 53.0633 141.002 52.3813C141.669 51.6993 142.675 51.3583 144.018 51.3583C145.371 51.3583 146.376 51.6993 147.035 52.3813C147.703 53.0633 148.036 54.164 148.036 55.6835C148.036 57.1424 147.703 58.2216 147.035 58.9209C146.376 59.6115 145.371 59.9568 144.018 59.9568ZM144.018 58.7655C144.905 58.7655 145.555 58.5281 145.968 58.0532C146.39 57.5698 146.6 56.7799 146.6 55.6835C146.6 54.5266 146.39 53.7194 145.968 53.2619C145.555 52.7957 144.905 52.5626 144.018 52.5626C143.14 52.5626 142.49 52.7957 142.069 53.2619C141.656 53.7194 141.45 54.5266 141.45 55.6835C141.45 56.7799 141.656 57.5698 142.069 58.0532C142.49 58.5281 143.14 58.7655 144.018 58.7655Z"
              fill="#F8F8F8"/>
        <path d="M153.388 59.9568C151.992 59.9568 150.938 59.5856 150.227 58.8432C149.524 58.1007 149.173 57.095 149.173 55.8259C149.173 54.9108 149.327 54.1209 149.634 53.4561C149.941 52.7827 150.407 52.2648 151.03 51.9022C151.663 51.5396 152.462 51.3583 153.428 51.3583C153.928 51.3583 154.381 51.3928 154.785 51.4619C155.198 51.5223 155.584 51.613 155.944 51.7338V52.9511C155.224 52.6921 154.425 52.5626 153.546 52.5626C152.466 52.5626 151.707 52.8432 151.267 53.4043C150.837 53.9655 150.622 54.7727 150.622 55.8259C150.622 56.7842 150.85 57.5137 151.307 58.0144C151.764 58.5151 152.471 58.7655 153.428 58.7655C154.183 58.7655 154.794 58.6791 155.259 58.5065V56.1755H153.138V55.2561H156.484V59.2705C156.212 59.4432 155.821 59.6029 155.312 59.7496C154.811 59.8878 154.17 59.9568 153.388 59.9568Z"
              fill="#F8F8F8"/>
        <path d="M160.064 59.8273V56.7324L157.021 51.4878H158.509L160.775 55.541L163.041 51.4878H164.529L161.486 56.7324V59.8273H160.064Z"
              fill="#F8F8F8"/>
    </g>
    <defs>
        <filter id="filter0_i_30_798" x="0" y="0" width="167.742" height="64" filterUnits="userSpaceOnUse"
                color-interpolation-filters="sRGB">
            <feFlood flood-opacity="0" result="BackgroundImageFix"/>
            <feBlend mode="normal" in="SourceGraphic" in2="BackgroundImageFix" result="shape"/>
            <feColorMatrix in="SourceAlpha" type="matrix" values="0 0 0 0 0 0 0 0 0 0 0 0 0 0 0 0 0 0 127 0"
                           result="hardAlpha"/>
            <feOffset dy="4"/>
            <feGaussianBlur stdDeviation="2"/>
            <feComposite in2="hardAlpha" operator="arithmetic" k2="-1" k3="1"/>
            <feColorMatrix type="matrix" values="0 0 0 0 0 0 0 0 0 0 0 0 0 0 0 0 0 0 0.25 0"/>
            <feBlend mode="normal" in2="shape" result="effect1_innerShadow_30_798"/>
        </filter>
        <clipPath id="clip0_30_798">
            <rect width="167.742" height="60" fill="white"/>
        </clipPath>
    </defs>
</svg>
